# xmcd
#
# Track frame offsets:
#	200
#	21320
#	43272
#	58302
#	80822
#	94912
#	110980
#	141920
#	159782
#	171112
#	185195
#	196725
#	215595
#
# Disc length: 3148 seconds
#
# Revision: 1
# Processed by: cddbd v1.4PL0 Copyright (c) Steve Scherf et al.
# Submitted via: audiograbber 1.81.02
#
DISCID=c70c4a0d
DTITLE=Charles Brown - All My Life
DYEAR=1990
DGENRE=Blues
TTITLE0=Early In The Morning
TTITLE1=Fool's Paradise
TTITLE2=Bad Bad Whiskey
TTITLE3=When The Sun Comes Out
TTITLE4=Nobody Knows The Trouble I've Seen
TTITLE5=That's A Pretty Good Love
TTITLE6=A Virus Called The Blues
TTITLE7=Seven Long Days
TTITLE8=Joyce's Boogie
TTITLE9=Trouble Blues
TTITLE10=Tell Me Who
TTITLE11=All My Life
TTITLE12=Too Late
EXTD=
EXTT0=
EXTT1=
EXTT2=
EXTT3=
EXTT4=
EXTT5=
EXTT6=
EXTT7=
EXTT8=
EXTT9=
EXTT10=
EXTT11=
EXTT12=
PLAYORDER=
